<?xml version="1.0" encoding="utf-8"?>
<!-- Generator: Adobe Illustrator 15.1.0, SVG Export Plug-In . SVG Version: 6.00 Build 0)  -->
<!DOCTYPE svg PUBLIC "-//W3C//DTD SVG 1.1//EN" "http://www.w3.org/Graphics/SVG/1.1/DTD/svg11.dtd">
<svg version="1.1" id="Layer_1" xmlns="http://www.w3.org/2000/svg" xmlns:xlink="http://www.w3.org/1999/xlink" x="0px" y="0px"
	 width="500px" height="500px" viewBox="0 0 500 500" enable-background="new 0 0 500 500" xml:space="preserve">
<polygon fill="#E45126" points="69.041,448.877 29.02,0 468.775,0 428.714,448.804 248.629,498.729 "/>
<polygon fill="#F1682B" points="248.898,460.57 394.414,420.226 428.651,36.702 248.898,36.702 "/>
<polygon fill="#EBEBEB" points="248.898,203.184 176.049,203.184 171.016,146.811 248.898,146.811 248.898,91.755 248.707,91.755 
	110.851,91.755 112.169,106.526 125.7,258.235 248.898,258.235 "/>
<polygon fill="#EBEBEB" points="248.898,346.161 248.657,346.228 187.344,329.67 183.423,285.766 153.631,285.766 128.16,285.766 
	135.873,372.203 248.644,403.51 248.898,403.441 "/>
<polygon fill="#FFFFFF" points="248.707,203.184 248.707,258.235 316.498,258.235 310.107,329.633 248.707,346.207 248.707,403.484 
	361.569,372.203 362.396,362.905 375.334,217.968 376.676,203.184 361.841,203.184 "/>
<polygon fill="#FFFFFF" points="248.707,91.755 248.707,125.948 248.707,146.674 248.707,146.811 381.508,146.811 381.508,146.811 
	381.687,146.811 382.79,134.436 385.298,106.526 386.616,91.755 "/>
</svg>
